<svg xmlns="http://www.w3.org/2000/svg" width="250" height="238" viewBox="0 0 250 238">
  <defs>
    <linearGradient id="undraw_no_data_qbuo_bikes-a" x1="49.999%" x2="49.999%" y1="100%" y2="0%">
      <stop offset="0%" stop-color="gray" stop-opacity=".25"/>
      <stop offset="54%" stop-color="gray" stop-opacity=".12"/>
      <stop offset="100%" stop-color="gray" stop-opacity=".1"/>
    </linearGradient>
    <linearGradient id="undraw_no_data_qbuo_bikes-b" x1="50%" x2="50%" y1="100%" y2="0%">
      <stop offset="0%" stop-color="gray" stop-opacity=".25"/>
      <stop offset="54%" stop-color="gray" stop-opacity=".12"/>
      <stop offset="100%" stop-color="gray" stop-opacity=".1"/>
    </linearGradient>
    <linearGradient id="undraw_no_data_qbuo_bikes-c" x1="59.598%" x2="40.455%" y1="98.88%" y2="1.029%">
      <stop offset="0%" stop-color="gray" stop-opacity=".25"/>
      <stop offset="54%" stop-color="gray" stop-opacity=".12"/>
      <stop offset="100%" stop-color="gray" stop-opacity=".1"/>
    </linearGradient>
    <linearGradient id="undraw_no_data_qbuo_bikes-d" x1="49.999%" x2="49.999%" y1="100%" y2="0%">
      <stop offset="0%" stop-color="gray" stop-opacity=".25"/>
      <stop offset="54%" stop-color="gray" stop-opacity=".12"/>
      <stop offset="100%" stop-color="gray" stop-opacity=".1"/>
    </linearGradient>
    <linearGradient id="undraw_no_data_qbuo_bikes-e" x1="50%" x2="50%" y1="100%" y2="0%">
      <stop offset="0%" stop-color="gray" stop-opacity=".25"/>
      <stop offset="54%" stop-color="gray" stop-opacity=".12"/>
      <stop offset="100%" stop-color="gray" stop-opacity=".1"/>
    </linearGradient>
    <linearGradient id="undraw_no_data_qbuo_bikes-f" x1="50%" x2="50%" y1="99.914%" y2="-.086%">
      <stop offset="0%" stop-color="gray" stop-opacity=".25"/>
      <stop offset="54%" stop-color="gray" stop-opacity=".12"/>
      <stop offset="100%" stop-color="gray" stop-opacity=".1"/>
    </linearGradient>
  </defs>
  <g fill="none">
    <polygon fill="#E0E0E0" points="38.866 25.285 171.946 25.265 171.917 209.265 38.837 209.286" transform="rotate(-12.11 105.391 117.275)"/>
    <polygon fill="url(#undraw_no_data_qbuo_bikes-a)" points="17.352 11.64 145.768 11.602 145.715 189.265 17.299 189.303" opacity=".5" transform="rotate(-12.11 173.666 -4.175)"/>
    <polygon fill="#FAFAFA" points="42.613 29.719 167.922 29.699 167.895 203.552 42.586 203.572" transform="rotate(-12.11 105.254 116.636)"/>
    <polygon fill="url(#undraw_no_data_qbuo_bikes-b)" points="56.11 24.074 118.274 24.065 118.272 39.133 56.108 39.143" transform="rotate(-12.11 87.191 31.604)"/>
    <path fill="url(#undraw_no_data_qbuo_bikes-c)" d="M82.6800927,10.1933801 C78.093342,11.2138567 75.1912772,15.9832741 76.2003028,20.8451819 C77.2093284,25.7070896 81.7425025,28.8270964 86.3203238,27.8066199 C90.898145,26.7861433 93.8091393,22.0167259 92.8001137,17.1548181 C91.7910881,12.2929104 87.2668434,9.17290363 82.6800927,10.1933801 Z M85.5583457,24.0977581 C83.5755714,24.5875471 81.5037534,23.7863987 80.3159381,22.0705791 C79.1281229,20.3547594 79.0603247,18.065195 80.1443856,16.277199 C81.2284464,14.489203 83.2489677,13.5580431 85.2569947,13.9210464 C87.2650217,14.2840496 88.8615673,15.8690887 89.2968005,17.9317368 C89.5937362,19.2631408 89.3662309,20.662221 88.6646221,21.8194197 C87.9630132,22.9766185 86.8451418,23.7965356 85.5583457,24.0977581 Z"/>
    <polygon fill="#2196F3" points="56.56 23.45 117.414 23.44 117.412 37.845 56.557 37.854" transform="rotate(-12.11 86.986 30.647)"/>
    <path fill="#2196F3" d="M82.7166028,10.1892858 C78.1277917,11.1743022 75.2061875,15.6930765 76.1909257,20.2823923 C77.1756639,24.8717081 81.6938656,27.7937847 86.2827531,26.8091244 C90.8716406,25.8244642 93.7935954,21.3059166 92.8092133,16.7165244 C92.3364474,14.5123924 91.0074827,12.586389 89.1147173,11.3622725 C87.2219519,10.1381559 84.9204556,9.71621532 82.7166028,10.1892858 L82.7166028,10.1892858 Z M85.5280505,23.3046229 C83.5882979,23.7208828 81.5888295,22.9275019 80.4620658,21.2944609 C79.3353021,19.6614199 79.303161,17.5103488 80.3806309,15.8443657 C81.4581009,14.1783825 83.4329725,13.3256053 85.3842957,13.6837132 C87.3356188,14.041821 88.8790773,15.5402841 89.2949036,17.4803178 C89.8625991,20.1288954 88.1762444,22.7363357 85.5280505,23.3046229 L85.5280505,23.3046229 Z"/>
    <rect width="133" height="184" x="79" y="36" fill="#E0E0E0"/>
    <rect width="128.771" height="177.82" x=".085" y=".037" fill="url(#undraw_no_data_qbuo_bikes-d)" opacity=".5" transform="translate(81 39)"/>
    <rect width="125" height="174" x="83" y="40" fill="#FFF"/>
    <rect width="62" height="15" x="114" y="33" fill="url(#undraw_no_data_qbuo_bikes-e)"/>
    <path fill="url(#undraw_no_data_qbuo_bikes-f)" d="M145.5,18 C140.806237,18 137,22.0287474 137,27 C137,31.9712526 140.806237,36 145.5,36 C150.193763,36 154,31.9712526 154,27 C154,22.0287474 150.193763,18 145.5,18 Z M145.5,32.1930185 C143.4589,32.2431125 141.591682,31.0101289 140.776794,29.0741363 C139.961906,27.1381438 140.361608,24.8846319 141.787856,23.3737864 C143.214104,21.8629408 145.382907,21.395597 147.273932,22.1916212 C149.164957,22.9876455 150.401668,24.8885355 150.402242,27 C150.422111,29.8245067 148.231025,32.134544 145.5,32.1683778 L145.5,32.1930185 Z"/>
    <rect width="61" height="14" x="115" y="32" fill="#2196F3"/>
    <path fill="#2196F3" d="M145.500124,18 C142.062245,18 138.962882,20.0709282 137.647263,23.2471141 C136.331644,26.4233 137.058857,30.0792481 139.489804,32.5101956 C141.920752,34.941143 145.5767,35.6683563 148.752886,34.352737 C151.929072,33.0371178 154,29.9377546 154,26.4998758 C154,21.805524 150.194476,18 145.500124,18 L145.500124,18 Z M145.500124,31.4056401 C142.793127,31.4022732 140.600462,29.2068705 140.600462,26.4998708 C140.600462,23.792871 142.793144,21.5974762 145.500142,21.5941152 C148.207139,21.5907618 150.405256,23.7807113 150.411975,26.4877027 C150.411169,27.7893201 149.893121,29.0372616 148.971883,29.9567878 C148.050644,30.8763139 146.801741,31.3920389 145.500124,31.3904237 L145.500124,31.4056401 Z"/>
    <g fill="#47E6B1" opacity=".5" transform="translate(2 224)">
      <rect width="1.196" height="6.787" x="2.95" y=".016"/>
      <polygon points="2.951 .018 4.147 .018 4.147 6.804 2.951 6.804" transform="rotate(90 3.55 3.41)"/>
    </g>
    <g fill="#47E6B1" opacity=".5" transform="translate(135)">
      <rect width="1.144" height="6.787" x="2.888"/>
      <polygon points="2.864 .146 4.06 .146 4.06 6.638 2.864 6.638" transform="rotate(90 3.462 3.392)"/>
    </g>
    <path fill="#4D8AF0" d="M234.592005,235.541721 C233.952215,235.263214 233.62283,234.549334 233.826128,233.881825 C233.841978,233.832506 233.85198,233.781495 233.855929,233.729842 L233.855929,233.729842 C233.874187,233.426793 233.691762,233.147564 233.406906,233.042545 C233.12205,232.937526 232.802029,233.031516 232.619203,233.273892 L232.619203,233.273892 C232.588214,233.315406 232.562209,233.360415 232.541721,233.407995 C232.263214,234.047785 231.549334,234.37717 230.881825,234.173872 C230.832506,234.158022 230.781495,234.14802 230.729842,234.144071 L230.729842,234.144071 C230.426793,234.125813 230.147564,234.308238 230.042545,234.593094 C229.937526,234.87795 230.031516,235.197971 230.273892,235.380797 L230.273892,235.380797 C230.315406,235.411786 230.360415,235.437791 230.407995,235.458279 C231.047785,235.736786 231.37717,236.450666 231.173872,237.118175 C231.158022,237.167494 231.14802,237.218505 231.144071,237.270158 L231.144071,237.270158 C231.125813,237.573207 231.308238,237.852436 231.593094,237.957455 C231.87795,238.062474 232.197971,237.968484 232.380797,237.726108 L232.380797,237.726108 C232.411786,237.684594 232.437791,237.639585 232.458279,237.592005 C232.736786,236.952215 233.450666,236.62283 234.118175,236.826128 C234.167494,236.841978 234.218505,236.85198 234.270158,236.855929 L234.270158,236.855929 C234.573207,236.874187 234.852436,236.691762 234.957455,236.406906 C235.062474,236.12205 234.968484,235.802029 234.726108,235.619203 L234.726108,235.619203 C234.684594,235.588214 234.639585,235.562209 234.592005,235.541721 Z" opacity=".5"/>
    <path fill="#FDD835" d="M41.5920048 172.541721C40.9522149 172.263214 40.6228302 171.549334 40.8261284 170.881825 40.8419781 170.832506 40.8519802 170.781495 40.855929 170.729842L40.855929 170.729842C40.8741874 170.426793 40.6917622 170.147564 40.4069063 170.042545 40.1220504 169.937526 39.8020288 170.031516 39.6192026 170.273892L39.6192026 170.273892C39.588214 170.315406 39.5622086 170.360415 39.5417209 170.407995 39.2632139 171.047785 38.5493335 171.37717 37.8818254 171.173872 37.8325058 171.158022 37.7814952 171.14802 37.7298421 171.144071L37.7298421 171.144071C37.4267933 171.125813 37.1475641 171.308238 37.0425449 171.593094 36.9375257 171.87795 37.0315156 172.197971 37.2738923 172.380797L37.2738923 172.380797C37.3154056 172.411786 37.3604149 172.437791 37.4079952 172.458279 38.0477851 172.736786 38.3771698 173.450666 38.1738716 174.118175 38.1580219 174.167494 38.1480198 174.218505 38.144071 174.270158L38.144071 174.270158C38.1258126 174.573207 38.3082378 174.852436 38.5930937 174.957455 38.8779496 175.062474 39.1979712 174.968484 39.3807974 174.726108L39.3807974 174.726108C39.411786 174.684594 39.4377914 174.639585 39.4582791 174.592005 39.7367861 173.952215 40.4506665 173.62283 41.1181746 173.826128 41.1674942 173.841978 41.2185048 173.85198 41.2701579 173.855929L41.2701579 173.855929C41.5732067 173.874187 41.8524359 173.691762 41.9574551 173.406906 42.0624743 173.12205 41.9684844 172.802029 41.7261077 172.619203L41.7261077 172.619203C41.6845944 172.588214 41.6395851 172.562209 41.5920048 172.541721zM202.592005 20.5417209C201.952215 20.2632139 201.62283 19.5493335 201.826128 18.8818254 201.841978 18.8325058 201.85198 18.7814952 201.855929 18.7298421L201.855929 18.7298421C201.874187 18.4267933 201.691762 18.1475641 201.406906 18.0425449 201.12205 17.9375257 200.802029 18.0315156 200.619203 18.2738923L200.619203 18.2738923C200.588214 18.3154056 200.562209 18.3604149 200.541721 18.4079952 200.263214 19.0477851 199.549334 19.3771698 198.881825 19.1738716 198.832506 19.1580219 198.781495 19.1480198 198.729842 19.144071L198.729842 19.144071C198.426793 19.1258126 198.147564 19.3082378 198.042545 19.5930937 197.937526 19.8779496 198.031516 20.1979712 198.273892 20.3807974L198.273892 20.3807974C198.315406 20.411786 198.360415 20.4377914 198.407995 20.4582791 199.047785 20.7367861 199.37717 21.4506665 199.173872 22.1181746 199.158022 22.1674942 199.14802 22.2185048 199.144071 22.2701579L199.144071 22.2701579C199.125813 22.5732067 199.308238 22.8524359 199.593094 22.9574551 199.87795 23.0624743 200.197971 22.9684844 200.380797 22.7261077L200.380797 22.7261077C200.411786 22.6845944 200.437791 22.6395851 200.458279 22.5920048 200.736786 21.9522149 201.450666 21.6228302 202.118175 21.8261284 202.167494 21.8419781 202.218505 21.8519802 202.270158 21.855929L202.270158 21.855929C202.573207 21.8741874 202.852436 21.6917622 202.957455 21.4069063 203.062474 21.1220504 202.968484 20.8020288 202.726108 20.6192026L202.726108 20.6192026C202.684594 20.588214 202.639585 20.5622086 202.592005 20.5417209L202.592005 20.5417209z" opacity=".5"/>
    <circle cx="247.5" cy="95.5" r="2.5" fill="#F55F44" opacity=".5"/>
    <circle cx="70.5" cy="227.5" r="2.5" fill="#F55F44" opacity=".5"/>
    <circle cx="223.5" cy="145.5" r="2.5" fill="#F55F44" opacity=".5"/>
    <circle cx="26.5" cy="29.5" r="2.5" fill="#4D8AF0" opacity=".5"/>
    <circle cx="2.5" cy="91.5" r="2.5" fill="#47E6B1" opacity=".5"/>
  </g>
</svg>
